<svg width="28" height="28" viewBox="0 0 28 28" fill="none" xmlns="http://www.w3.org/2000/svg">
<g clip-path="url(#clip0_316_19124)">
<g filter="url(#filter0_d_316_19124)">
<path fill-rule="evenodd" clip-rule="evenodd" d="M10.7554 11.9478L14.0358 15.1857L23.7516 5.47206V7.48529H25.353V2.65234H20.513V4.26532H22.4908C21.5437 5.21222 20.5966 6.15847 19.6486 7.10559C17.7497 9.00273 15.8473 10.9034 13.9343 12.82L10.7554 9.64189L2.92786 17.4797L4.0751 18.6208L10.7554 11.9478ZM18.8755 25.3535H25.3527C25.3587 25.2878 25.3647 25.246 25.3706 25.2101V13.0113C25.3639 12.9068 25.3217 12.8078 25.2511 12.7305C24.9125 12.38 24.566 12.0335 24.2114 11.691C24.125 11.6162 24.0151 11.5739 23.9007 11.5715H20.3454C20.2325 11.5774 20.125 11.6217 20.0407 11.697C19.8582 11.8697 19.6793 12.0494 19.5 12.2296C19.3506 12.3797 19.2009 12.5301 19.0488 12.6767C18.9906 12.7291 18.9448 12.7939 18.9149 12.8662C18.8849 12.9386 18.8714 13.0167 18.8755 13.0949V25.0906V25.3535ZM17.2266 25.3536H10.7554V25.0907V17.922C10.7677 17.7872 10.8221 17.6597 10.9108 17.5575C11.2275 17.217 11.5621 16.8885 11.8967 16.5718C11.9874 16.4926 12.0998 16.4427 12.2194 16.4285H15.7746C15.8876 16.4343 15.9951 16.4786 16.0794 16.5539C16.4379 16.8885 16.7785 17.235 17.1191 17.5874C17.1893 17.6578 17.2317 17.7511 17.2386 17.8503V25.252C17.2378 25.2862 17.2338 25.3202 17.2266 25.3536ZM2.64104 21.4466V25.3417L9.14211 25.3536C9.1439 25.3238 9.1439 25.2939 9.14211 25.264V21.0822C9.13282 20.9837 9.09074 20.8911 9.02261 20.8194C8.69397 20.4789 8.36533 20.1443 8.01876 19.8217C7.91691 19.7288 7.78602 19.6739 7.6483 19.6664H5.2582C4.81671 19.6034 4.36751 19.6196 3.9317 19.7142C3.704 19.8241 3.50726 20.0475 3.30757 20.2742C3.20333 20.3925 3.09828 20.5118 2.98761 20.6163C2.86569 20.7152 2.77022 20.8429 2.70974 20.9878C2.64926 21.1327 2.62566 21.2904 2.64104 21.4466Z" fill="white"/>
</g>
</g>
<defs>
<filter id="filter0_d_316_19124" x="-1.36353" y="-1.34766" width="30.7341" height="30.7012" filterUnits="userSpaceOnUse" color-interpolation-filters="sRGB">
<feFlood flood-opacity="0" result="BackgroundImageFix"/>
<feColorMatrix in="SourceAlpha" type="matrix" values="0 0 0 0 0 0 0 0 0 0 0 0 0 0 0 0 0 0 127 0" result="hardAlpha"/>
<feOffset/>
<feGaussianBlur stdDeviation="2"/>
<feComposite in2="hardAlpha" operator="out"/>
<feColorMatrix type="matrix" values="0 0 0 0 1 0 0 0 0 1 0 0 0 0 1 0 0 0 0.5 0"/>
<feBlend mode="normal" in2="BackgroundImageFix" result="effect1_dropShadow_316_19124"/>
<feBlend mode="normal" in="SourceGraphic" in2="effect1_dropShadow_316_19124" result="shape"/>
</filter>
<clipPath id="clip0_316_19124">
<rect width="28" height="28" fill="white"/>
</clipPath>
</defs>
</svg>
