<svg width="28" height="28" viewBox="0 0 28 28" fill="none" xmlns="http://www.w3.org/2000/svg">
<g clip-path="url(#clip0_326_2729)">
<g filter="url(#filter0_d_326_2729)">
<path d="M25 6.96959C24.998 6.46086 24.8927 5.95761 24.6902 5.48927C24.3831 4.75199 23.8587 4.12139 23.1842 3.67819C22.5097 3.23499 21.7158 2.99935 20.904 3.00142C17.8291 3.00142 14.76 3.00142 11.6908 3.00142H6.74577C6.61022 2.99437 6.47458 3.0136 6.34661 3.05803C6.21865 3.10246 6.10086 3.17121 6 3.26034L6.24094 3.36165C6.96537 3.6785 7.58184 4.19276 8.0171 4.84331C8.45235 5.49386 8.68808 6.25335 8.69626 7.03151C8.69626 12.6601 8.69626 18.2887 8.69626 23.9173C8.68237 24.1157 8.72966 24.3136 8.83198 24.4853C8.93429 24.657 9.08689 24.7944 9.26993 24.8798C9.4564 24.9711 9.66731 25.0028 9.87306 24.9705C10.0788 24.9382 10.2691 24.8435 10.4173 24.6997L11.7769 23.574L13.2684 22.3244L13.5208 22.5271L16.0909 24.6885C16.1863 24.7869 16.3011 24.8653 16.4283 24.9188C16.5555 24.9724 16.6925 25 16.8309 25C16.9694 25 17.1063 24.9724 17.2336 24.9188C17.3608 24.8653 17.4756 24.7869 17.571 24.6885C18.5118 23.9061 19.4469 23.1181 20.3992 22.3188L20.5426 22.4314L23.2446 24.6828C23.3952 24.8153 23.5823 24.9013 23.7824 24.9304C23.9825 24.9595 24.1869 24.9302 24.3702 24.8463C24.5535 24.7623 24.7077 24.6274 24.8135 24.4583C24.9194 24.2891 24.9722 24.0932 24.9656 23.8948L25 6.96959ZM13.5266 7.04276C13.6218 7.03139 13.7181 7.03139 13.8134 7.04276H19.8714C20.01 7.03249 20.1493 7.05041 20.2805 7.0954C20.4117 7.14038 20.532 7.21147 20.634 7.3042C20.7359 7.39693 20.8172 7.50931 20.8728 7.6343C20.9284 7.7593 20.9571 7.89421 20.9571 8.03059C20.9571 8.16697 20.9284 8.30188 20.8728 8.42687C20.8172 8.55186 20.7359 8.66424 20.634 8.75697C20.532 8.84971 20.4117 8.92079 20.2805 8.96578C20.1493 9.01076 20.01 9.02868 19.8714 9.01841H13.779C13.512 9.04677 13.2444 8.9699 13.0352 8.8047C12.8259 8.63951 12.6921 8.39952 12.6632 8.13753C12.6343 7.87554 12.7126 7.61302 12.881 7.40771C13.0494 7.2024 13.294 7.07113 13.561 7.04276H13.5266ZM20.904 11.9734C20.9123 12.1089 20.8913 12.2445 20.8424 12.3714C20.7935 12.4983 20.7179 12.6136 20.6203 12.7098C20.5228 12.806 20.4057 12.8809 20.2766 12.9296C20.1476 12.9783 20.0094 12.9996 19.8714 12.9922C18.856 12.9922 17.8348 12.9922 16.8194 12.9922C15.8213 12.9922 14.8288 12.9922 13.8364 12.9922C13.7051 13.0006 13.5734 12.9832 13.449 12.9412C13.3245 12.8992 13.2099 12.8333 13.1117 12.7474C13.0134 12.6615 12.9336 12.5573 12.8768 12.4409C12.82 12.3244 12.7874 12.1981 12.7808 12.0691C12.773 11.9279 12.796 11.7867 12.8484 11.655C12.9008 11.5233 12.9813 11.4041 13.0846 11.3054C13.1879 11.2068 13.3114 11.131 13.447 11.0831C13.5827 11.0352 13.7271 11.0164 13.8708 11.0278H19.8714C20.1349 11.0231 20.39 11.1191 20.5827 11.2956C20.7754 11.4721 20.8906 11.7151 20.904 11.9734ZM19.8714 16.9998C18.8617 16.9998 17.8521 16.9998 16.8424 16.9998H13.8249C13.628 17.0088 13.4328 16.9601 13.2642 16.8598C13.0956 16.7596 12.9613 16.6124 12.8783 16.4369C12.802 16.2779 12.7718 16.1013 12.791 15.9266C12.8103 15.7518 12.8782 15.5857 12.9873 15.4463C13.066 15.3329 13.1699 15.2386 13.2911 15.1703C13.4123 15.1021 13.5478 15.0617 13.6872 15.0523C13.7655 15.0465 13.8441 15.0465 13.9224 15.0523C15.8805 15.0523 17.8368 15.0523 19.7911 15.0523C19.9376 15.0156 20.0907 15.0115 20.239 15.0404C20.3874 15.0692 20.5273 15.1301 20.6486 15.2188C20.7699 15.3074 20.8694 15.4216 20.94 15.5528C21.0106 15.6841 21.0504 15.8291 21.0565 15.9774C21.0626 16.1257 21.0349 16.2734 20.9753 16.4098C20.9158 16.5462 20.826 16.6679 20.7124 16.7658C20.5988 16.8638 20.4644 16.9357 20.3189 16.9762C20.1734 17.0166 20.0205 17.0247 19.8714 16.9998Z" fill="white"/>
</g>
<g filter="url(#filter1_d_326_2729)">
<path d="M4.99382 5C4.46562 5.00579 3.96105 5.21703 3.58962 5.58786C3.2182 5.95868 3.0099 6.45917 3.00993 6.9807V13.8471C2.98801 14.0015 3.0025 14.1588 3.05226 14.3067C3.10203 14.4547 3.18573 14.5893 3.29683 14.7C3.40794 14.8108 3.54346 14.8947 3.69281 14.9453C3.84217 14.9958 4.00134 15.0117 4.15791 14.9915C5.01611 14.9915 5.87431 14.9915 6.73251 14.9915H7V14.6779C7 12.1103 7 9.54276 7 6.97519C6.99852 6.45083 6.78651 5.94845 6.41044 5.57819C6.03436 5.20792 5.52493 5 4.99382 5Z" fill="white"/>
</g>
</g>
<defs>
<filter id="filter0_d_326_2729" x="2" y="-1" width="27" height="30" filterUnits="userSpaceOnUse" color-interpolation-filters="sRGB">
<feFlood flood-opacity="0" result="BackgroundImageFix"/>
<feColorMatrix in="SourceAlpha" type="matrix" values="0 0 0 0 0 0 0 0 0 0 0 0 0 0 0 0 0 0 127 0" result="hardAlpha"/>
<feOffset/>
<feGaussianBlur stdDeviation="2"/>
<feComposite in2="hardAlpha" operator="out"/>
<feColorMatrix type="matrix" values="0 0 0 0 1 0 0 0 0 1 0 0 0 0 1 0 0 0 0.5 0"/>
<feBlend mode="normal" in2="BackgroundImageFix" result="effect1_dropShadow_326_2729"/>
<feBlend mode="normal" in="SourceGraphic" in2="effect1_dropShadow_326_2729" result="shape"/>
</filter>
<filter id="filter1_d_326_2729" x="-1" y="1" width="12" height="18" filterUnits="userSpaceOnUse" color-interpolation-filters="sRGB">
<feFlood flood-opacity="0" result="BackgroundImageFix"/>
<feColorMatrix in="SourceAlpha" type="matrix" values="0 0 0 0 0 0 0 0 0 0 0 0 0 0 0 0 0 0 127 0" result="hardAlpha"/>
<feOffset/>
<feGaussianBlur stdDeviation="2"/>
<feComposite in2="hardAlpha" operator="out"/>
<feColorMatrix type="matrix" values="0 0 0 0 1 0 0 0 0 1 0 0 0 0 1 0 0 0 0.5 0"/>
<feBlend mode="normal" in2="BackgroundImageFix" result="effect1_dropShadow_326_2729"/>
<feBlend mode="normal" in="SourceGraphic" in2="effect1_dropShadow_326_2729" result="shape"/>
</filter>
<clipPath id="clip0_326_2729">
<rect width="28" height="28" fill="white"/>
</clipPath>
</defs>
</svg>
