<svg width="32" height="32" viewBox="0 0 32 32" fill="none" xmlns="http://www.w3.org/2000/svg">
<g filter="url(#filter0_d_326_2733)">
<path d="M24.6801 17.155L24.6684 17.1784C24.7151 16.7934 24.7617 16.3967 24.7617 16C24.7617 15.6034 24.7267 15.23 24.6801 14.845L24.6917 14.8684L27.5384 12.6284L24.7034 7.70504L21.3551 9.05837L21.3667 9.07004C20.7601 8.60337 20.0951 8.20671 19.3717 7.90337H19.3834L18.8467 4.33337H13.1651L12.6517 7.91504H12.6634C11.9401 8.21837 11.2751 8.61504 10.6684 9.08171L10.6801 9.07004L7.32006 7.70504L4.47339 12.6284L7.32006 14.8684L7.33172 14.845C7.28506 15.23 7.25006 15.6034 7.25006 16C7.25006 16.3967 7.28506 16.7934 7.34339 17.1784L7.33172 17.155L4.88172 19.08L4.49672 19.3834L7.33172 24.2834L10.6917 22.9417L10.6684 22.895C11.2867 23.3734 11.9517 23.77 12.6867 24.0734H12.6517L13.1767 27.6667H18.8351C18.8351 27.6667 18.8701 27.4567 18.9051 27.1767L19.3484 24.085H19.3367C20.0601 23.7817 20.7367 23.385 21.3551 22.9067L21.3317 22.9534L24.6917 24.295L27.5267 19.395C27.5267 19.395 27.3634 19.255 27.1417 19.0917L24.6801 17.155ZM16.0001 20.0834C13.7484 20.0834 11.9167 18.2517 11.9167 16C11.9167 13.7484 13.7484 11.9167 16.0001 11.9167C18.2517 11.9167 20.0834 13.7484 20.0834 16C20.0834 18.2517 18.2517 20.0834 16.0001 20.0834Z" fill="white"/>
</g>
<defs>
<filter id="filter0_d_326_2733" x="0.473389" y="0.333374" width="31.0649" height="31.3333" filterUnits="userSpaceOnUse" color-interpolation-filters="sRGB">
<feFlood flood-opacity="0" result="BackgroundImageFix"/>
<feColorMatrix in="SourceAlpha" type="matrix" values="0 0 0 0 0 0 0 0 0 0 0 0 0 0 0 0 0 0 127 0" result="hardAlpha"/>
<feOffset/>
<feGaussianBlur stdDeviation="2"/>
<feComposite in2="hardAlpha" operator="out"/>
<feColorMatrix type="matrix" values="0 0 0 0 1 0 0 0 0 1 0 0 0 0 1 0 0 0 0.5 0"/>
<feBlend mode="normal" in2="BackgroundImageFix" result="effect1_dropShadow_326_2733"/>
<feBlend mode="normal" in="SourceGraphic" in2="effect1_dropShadow_326_2733" result="shape"/>
</filter>
</defs>
</svg>
