<svg width="28" height="28" viewBox="0 0 28 28" fill="none" xmlns="http://www.w3.org/2000/svg">
<g clip-path="url(#clip0_326_2737)">
<g filter="url(#filter0_d_326_2737)">
<path d="M5.73972 25.9514L5.20218 25.82C4.25471 25.6033 3.41233 25.0634 2.81986 24.2929C2.2274 23.5224 1.92186 22.5696 1.9558 21.5983C1.98973 20.627 2.36101 19.6978 3.0058 18.9706C3.65058 18.2434 4.52859 17.7635 5.48886 17.6135C5.61728 17.5781 5.74985 17.56 5.88306 17.5597C6.54758 17.5699 7.19006 17.3215 7.67487 16.8669C8.3193 16.3731 8.84908 15.7455 9.22777 15.0273C9.343 14.8072 9.43316 14.5748 9.49654 14.3345C9.54241 14.1765 9.54203 14.0088 9.49546 13.851C9.44888 13.6933 9.35805 13.5522 9.23375 13.4445C8.81152 13.0973 8.4864 12.6467 8.29006 12.1365C8.10288 11.6924 8.04506 11.2045 8.12326 10.7289C8.20147 10.2534 8.4125 9.80959 8.73204 9.44881C9.58016 8.51707 10.5238 7.69284 11.4257 6.83875L21.2508 16.6399C21.2128 16.6891 21.1709 16.735 21.1254 16.7773C20.3927 17.5179 19.6561 18.2546 18.9155 18.9872C18.6533 19.2702 18.3354 19.4959 17.9819 19.6503C17.6283 19.8047 17.2467 19.8844 16.8609 19.8844C16.4751 19.8844 16.0935 19.8047 15.7399 19.6503C15.3863 19.4959 15.0685 19.2702 14.8063 18.9872L14.7704 18.9514C14.6823 18.8251 14.57 18.7177 14.4399 18.6354C14.3098 18.5531 14.1646 18.4975 14.0128 18.4719C13.861 18.4464 13.7056 18.4513 13.5557 18.4864C13.4059 18.5216 13.2645 18.5862 13.1399 18.6766C12.0971 19.1649 11.2387 19.9752 10.6911 20.9881C10.5421 21.2598 10.4583 21.5624 10.4462 21.872C10.4139 22.8042 10.0751 23.6998 9.4823 24.42C8.88951 25.1402 8.07581 25.6449 7.16719 25.8558L6.76105 25.9514H5.73972ZM6.25337 22.4514C6.43676 22.4438 6.61041 22.3668 6.73909 22.2359C6.86776 22.105 6.94181 21.9301 6.9462 21.7466C6.93012 21.5732 6.84986 21.412 6.72114 21.2947C6.59243 21.1774 6.42455 21.1123 6.25038 21.1123C6.07622 21.1123 5.90834 21.1774 5.77962 21.2947C5.65091 21.412 5.57065 21.5732 5.55456 21.7466C5.55904 21.9311 5.63392 22.1069 5.76385 22.2379C5.89379 22.369 6.06893 22.4453 6.25337 22.4514Z" fill="white"/>
</g>
<g filter="url(#filter1_d_326_2737)">
<path d="M25.9394 11.8558C25.8115 12.0379 25.6718 12.2114 25.5213 12.3754C24.4522 13.4624 23.3712 14.5375 22.314 15.5947L12.4113 5.69195L12.5307 5.56055L15.7321 2.38905C15.8001 2.2941 15.8897 2.21674 15.9936 2.16337C16.0975 2.10999 16.2126 2.08215 16.3293 2.08215C16.4461 2.08215 16.5612 2.10999 16.6651 2.16337C16.769 2.21674 16.8586 2.2941 16.9266 2.38905C19.8254 5.2878 22.7201 8.18654 25.6109 11.0853C25.7277 11.2178 25.8336 11.3597 25.9275 11.5094L25.9394 11.8558Z" fill="white"/>
</g>
</g>
<defs>
<filter id="filter0_d_326_2737" x="-2.04675" y="2.83875" width="27.2976" height="27.1126" filterUnits="userSpaceOnUse" color-interpolation-filters="sRGB">
<feFlood flood-opacity="0" result="BackgroundImageFix"/>
<feColorMatrix in="SourceAlpha" type="matrix" values="0 0 0 0 0 0 0 0 0 0 0 0 0 0 0 0 0 0 127 0" result="hardAlpha"/>
<feOffset/>
<feGaussianBlur stdDeviation="2"/>
<feComposite in2="hardAlpha" operator="out"/>
<feColorMatrix type="matrix" values="0 0 0 0 1 0 0 0 0 1 0 0 0 0 1 0 0 0 0.5 0"/>
<feBlend mode="normal" in2="BackgroundImageFix" result="effect1_dropShadow_326_2737"/>
<feBlend mode="normal" in="SourceGraphic" in2="effect1_dropShadow_326_2737" result="shape"/>
</filter>
<filter id="filter1_d_326_2737" x="8.41125" y="-1.91785" width="21.5282" height="21.5125" filterUnits="userSpaceOnUse" color-interpolation-filters="sRGB">
<feFlood flood-opacity="0" result="BackgroundImageFix"/>
<feColorMatrix in="SourceAlpha" type="matrix" values="0 0 0 0 0 0 0 0 0 0 0 0 0 0 0 0 0 0 127 0" result="hardAlpha"/>
<feOffset/>
<feGaussianBlur stdDeviation="2"/>
<feComposite in2="hardAlpha" operator="out"/>
<feColorMatrix type="matrix" values="0 0 0 0 1 0 0 0 0 1 0 0 0 0 1 0 0 0 0.5 0"/>
<feBlend mode="normal" in2="BackgroundImageFix" result="effect1_dropShadow_326_2737"/>
<feBlend mode="normal" in="SourceGraphic" in2="effect1_dropShadow_326_2737" result="shape"/>
</filter>
<clipPath id="clip0_326_2737">
<rect width="27.9881" height="28" fill="white"/>
</clipPath>
</defs>
</svg>
