<svg width="28" height="28" viewBox="0 0 28 28" fill="none" xmlns="http://www.w3.org/2000/svg">
<g clip-path="url(#clip0_326_2741)">
<g filter="url(#filter0_d_326_2741)">
<path d="M13.8865 2.04908C14.5529 2.03237 15.2155 2.15522 15.8316 2.40974C16.4478 2.66425 17.0039 3.0448 17.4642 3.52694C17.9245 4.00909 18.2788 4.58216 18.5044 5.20934C18.73 5.83653 18.8219 6.50396 18.7742 7.16877C18.7138 8.25598 18.274 9.2876 17.5314 10.0841C17.5046 10.1045 17.4822 10.1301 17.4656 10.1594C17.4489 10.1887 17.4383 10.221 17.4344 10.2544C17.4305 10.2879 17.4334 10.3218 17.4428 10.3541C17.4523 10.3864 17.4682 10.4165 17.4895 10.4425C18.6248 12.3741 19.7542 14.3037 20.8775 16.2313C20.9087 16.2958 20.9597 16.3487 21.0232 16.382C21.0867 16.4154 21.1592 16.4274 21.23 16.4165C22.1108 16.4225 22.9728 16.6716 23.7208 17.1365C24.4689 17.6013 25.074 18.2638 25.4693 19.0507C25.8646 19.8376 26.0347 20.7184 25.9609 21.5959C25.8871 22.4734 25.5723 23.3135 25.0511 24.0234C24.53 24.7333 23.8228 25.2854 23.0076 25.6189C22.1924 25.9523 21.3009 26.0541 20.4315 25.913C19.5621 25.7718 18.7486 25.3933 18.0808 24.8192C17.413 24.245 16.9168 23.4976 16.647 22.6593C16.5813 22.4562 16.5036 22.3845 16.2825 22.3904C14.7648 22.3904 13.2411 22.3904 11.7234 22.3904C11.6841 22.3836 11.6439 22.3848 11.605 22.3938C11.5662 22.4028 11.5295 22.4195 11.4972 22.4428C11.4649 22.4662 11.4376 22.4958 11.417 22.5299C11.3963 22.564 11.3827 22.6019 11.3769 22.6414C11.0618 23.636 10.4299 24.5002 9.57756 25.1021C8.72523 25.704 7.69932 26.0105 6.65642 25.9748C5.44221 25.952 4.28221 25.468 3.41199 24.6211C2.54177 23.7742 2.02659 22.6279 1.97107 21.415C1.91554 20.2021 2.32384 19.0136 3.11305 18.0907C3.90225 17.1679 5.01318 16.58 6.22023 16.4463C6.40489 16.4257 6.59127 16.4257 6.77593 16.4463C6.85968 16.4643 6.94711 16.4512 7.02188 16.4094C7.09666 16.3676 7.15366 16.3001 7.18224 16.2193C8.28567 14.3077 9.39707 12.4 10.5164 10.4963C10.5405 10.4675 10.5585 10.4341 10.5694 10.3982C10.5803 10.3623 10.5839 10.3246 10.58 10.2873C10.5761 10.25 10.5648 10.2139 10.5467 10.181C10.5286 10.1481 10.5041 10.1192 10.4746 10.096C9.88688 9.47554 9.4834 8.70384 9.30929 7.86721C9.13517 7.03058 9.19729 6.16201 9.48869 5.35866C9.73558 4.53348 10.2092 3.79418 10.8557 3.22492C11.5022 2.65565 12.2956 2.2793 13.1455 2.13869C13.3906 2.09463 13.638 2.06471 13.8865 2.04908ZM9.40504 17.1214L9.52454 17.217C10.4263 17.83 11.0889 18.7352 11.4008 19.7798C11.4545 19.971 11.5621 19.965 11.7115 19.965H16.5574C16.871 18.7923 17.613 17.7798 18.6368 17.1274L15.3026 11.4282C14.46 11.6762 13.5639 11.6762 12.7213 11.4282L9.40504 17.1214Z" fill="white"/>
</g>
</g>
<defs>
<filter id="filter0_d_326_2741" x="-2.03394" y="-1.95242" width="32.0116" height="31.9301" filterUnits="userSpaceOnUse" color-interpolation-filters="sRGB">
<feFlood flood-opacity="0" result="BackgroundImageFix"/>
<feColorMatrix in="SourceAlpha" type="matrix" values="0 0 0 0 0 0 0 0 0 0 0 0 0 0 0 0 0 0 127 0" result="hardAlpha"/>
<feOffset/>
<feGaussianBlur stdDeviation="2"/>
<feComposite in2="hardAlpha" operator="out"/>
<feColorMatrix type="matrix" values="0 0 0 0 1 0 0 0 0 1 0 0 0 0 1 0 0 0 0.5 0"/>
<feBlend mode="normal" in2="BackgroundImageFix" result="effect1_dropShadow_326_2741"/>
<feBlend mode="normal" in="SourceGraphic" in2="effect1_dropShadow_326_2741" result="shape"/>
</filter>
<clipPath id="clip0_326_2741">
<rect width="28" height="28" fill="white"/>
</clipPath>
</defs>
</svg>
