<svg width="28" height="28" viewBox="0 0 28 28" fill="none" xmlns="http://www.w3.org/2000/svg">
<g clip-path="url(#clip0_326_2751)">
<g filter="url(#filter0_d_326_2751)">
<path d="M5.06707 5.05937V22.9406H19.1686C19.5576 22.9065 19.9446 23.025 20.248 23.2711C20.5513 23.5171 20.7473 23.8715 20.7946 24.2594C20.8419 24.6473 20.7368 25.0385 20.5014 25.3503C20.2661 25.6621 19.9189 25.8703 19.5331 25.9308C19.4181 25.9456 19.3016 25.9456 19.1866 25.9308H3.97957C3.72404 25.9365 3.47 25.8903 3.23285 25.7949C2.9957 25.6995 2.78038 25.5569 2.59992 25.3757C2.41947 25.1945 2.27764 24.9786 2.18304 24.7409C2.08844 24.5033 2.04303 24.2489 2.04957 23.9932V3.9829C2.04393 3.7292 2.0894 3.47697 2.18327 3.24124C2.27714 3.00551 2.41748 2.79112 2.59592 2.61085C2.77436 2.43058 2.98726 2.28812 3.2219 2.19198C3.45654 2.09584 3.70812 2.04797 3.96165 2.05125H19.1925C19.5717 2.04277 19.94 2.17778 20.224 2.42929C20.508 2.68081 20.6867 3.03031 20.7245 3.40796C20.7622 3.78562 20.6562 4.16362 20.4276 4.46644C20.199 4.76926 19.8646 4.9746 19.4913 5.04142C19.3661 5.05333 19.2401 5.05333 19.1149 5.04142H5.06707V5.05937Z" fill="white"/>
</g>
<g filter="url(#filter1_d_326_2751)">
<path d="M20.5369 15.5071H11.5741C11.2674 15.5099 10.9672 15.4185 10.714 15.2453C10.4607 15.0721 10.2667 14.8253 10.1579 14.5382C10.0471 14.2558 10.0254 13.9461 10.0959 13.6509C10.1665 13.3558 10.3257 13.0894 10.5523 12.8877C10.838 12.6278 11.212 12.4866 11.598 12.493H20.5011C20.041 12.0265 19.6048 11.5959 19.1806 11.1534C18.9513 10.9203 18.8059 10.6178 18.7669 10.2931C18.728 9.96839 18.7978 9.63996 18.9655 9.35926C19.0792 9.16525 19.2341 8.99859 19.4192 8.87105C19.6043 8.74351 19.8152 8.65819 20.0369 8.62111C20.2585 8.58404 20.4856 8.59612 20.7021 8.6565C20.9186 8.71688 21.1193 8.82408 21.2898 8.97054C21.6663 9.29946 22.0128 9.67024 22.3713 10.0171L25.4785 13.085C25.6241 13.1903 25.7427 13.3287 25.8244 13.4888C25.9062 13.6489 25.9488 13.8262 25.9488 14.006C25.9488 14.1858 25.9062 14.363 25.8244 14.5232C25.7427 14.6833 25.6241 14.8217 25.4785 14.927L21.4392 18.9099C21.3004 19.0638 21.1318 19.188 20.9438 19.2751C20.7557 19.3621 20.5519 19.4101 20.3448 19.4163C20.1377 19.4224 19.9315 19.3866 19.7386 19.3108C19.5457 19.2351 19.3701 19.1211 19.2224 18.9757C19.0811 18.8411 18.9678 18.6798 18.8891 18.5012C18.8104 18.3225 18.7679 18.13 18.764 17.9348C18.7601 17.7396 18.7949 17.5456 18.8664 17.364C18.9379 17.1823 19.0447 17.0167 19.1806 16.8766C19.551 16.4878 19.9394 16.123 20.3159 15.7463L20.5369 15.5071Z" fill="white"/>
</g>
</g>
<defs>
<filter id="filter0_d_326_2751" x="-1.95105" y="-1.94913" width="26.7567" height="31.891" filterUnits="userSpaceOnUse" color-interpolation-filters="sRGB">
<feFlood flood-opacity="0" result="BackgroundImageFix"/>
<feColorMatrix in="SourceAlpha" type="matrix" values="0 0 0 0 0 0 0 0 0 0 0 0 0 0 0 0 0 0 127 0" result="hardAlpha"/>
<feOffset/>
<feGaussianBlur stdDeviation="2"/>
<feComposite in2="hardAlpha" operator="out"/>
<feColorMatrix type="matrix" values="0 0 0 0 1 0 0 0 0 1 0 0 0 0 1 0 0 0 0.5 0"/>
<feBlend mode="normal" in2="BackgroundImageFix" result="effect1_dropShadow_326_2751"/>
<feBlend mode="normal" in="SourceGraphic" in2="effect1_dropShadow_326_2751" result="shape"/>
</filter>
<filter id="filter1_d_326_2751" x="6.0553" y="4.6001" width="23.8936" height="18.8169" filterUnits="userSpaceOnUse" color-interpolation-filters="sRGB">
<feFlood flood-opacity="0" result="BackgroundImageFix"/>
<feColorMatrix in="SourceAlpha" type="matrix" values="0 0 0 0 0 0 0 0 0 0 0 0 0 0 0 0 0 0 127 0" result="hardAlpha"/>
<feOffset/>
<feGaussianBlur stdDeviation="2"/>
<feComposite in2="hardAlpha" operator="out"/>
<feColorMatrix type="matrix" values="0 0 0 0 1 0 0 0 0 1 0 0 0 0 1 0 0 0 0.5 0"/>
<feBlend mode="normal" in2="BackgroundImageFix" result="effect1_dropShadow_326_2751"/>
<feBlend mode="normal" in="SourceGraphic" in2="effect1_dropShadow_326_2751" result="shape"/>
</filter>
<clipPath id="clip0_326_2751">
<rect width="28" height="28" fill="white"/>
</clipPath>
</defs>
</svg>
