<svg width="32" height="32" viewBox="0 0 32 32" fill="none" xmlns="http://www.w3.org/2000/svg">
<g filter="url(#filter0_d_569_6420)">
<path d="M4 11.8951V20.1049H9.33333L16 26.9464V5.05359L9.33333 11.8951H4ZM22 16C22 13.5781 20.64 11.4983 18.6667 10.4857V21.5006C20.64 20.5017 22 18.4219 22 16ZM18.6667 4V6.8187C22.52 7.99544 25.3333 11.6625 25.3333 16C25.3333 20.3375 22.52 24.0046 18.6667 25.1813V28C24.0133 26.7548 28 21.8563 28 16C28 10.1437 24.0133 5.24515 18.6667 4V4Z" fill="white"/>
</g>
<defs>
<filter id="filter0_d_569_6420" x="0" y="0" width="32" height="32" filterUnits="userSpaceOnUse" color-interpolation-filters="sRGB">
<feFlood flood-opacity="0" result="BackgroundImageFix"/>
<feColorMatrix in="SourceAlpha" type="matrix" values="0 0 0 0 0 0 0 0 0 0 0 0 0 0 0 0 0 0 127 0" result="hardAlpha"/>
<feOffset/>
<feGaussianBlur stdDeviation="2"/>
<feComposite in2="hardAlpha" operator="out"/>
<feColorMatrix type="matrix" values="0 0 0 0 1 0 0 0 0 1 0 0 0 0 1 0 0 0 0.5 0"/>
<feBlend mode="normal" in2="BackgroundImageFix" result="effect1_dropShadow_569_6420"/>
<feBlend mode="normal" in="SourceGraphic" in2="effect1_dropShadow_569_6420" result="shape"/>
</filter>
</defs>
</svg>
