<svg width="10" height="18" viewBox="0 0 10 18" fill="none" xmlns="http://www.w3.org/2000/svg">
<path d="M4.54265 13.8423C4.41286 13.8423 4.3047 13.8 4.21817 13.7155C4.13164 13.6141 4.08838 13.4789 4.08838 13.3099C4.08838 13.1408 4.08838 12.9718 4.08838 12.8028C4.08838 12.6338 4.08838 12.4648 4.08838 12.2958C4.11722 11.569 4.25422 10.9268 4.49938 10.369C4.74454 9.81127 5.04017 9.30423 5.38628 8.84789C5.74681 8.39155 6.10733 7.96056 6.46786 7.55493C6.82839 7.1324 7.13123 6.70986 7.37639 6.28732C7.63597 5.86479 7.7946 5.4169 7.85229 4.94366C7.90997 4.33521 7.80902 3.82817 7.54944 3.42254C7.28986 3 6.93655 2.67887 6.48949 2.45916C6.04244 2.23944 5.58096 2.12958 5.10507 2.12958C4.34075 2.12958 3.68459 2.3662 3.13659 2.83944C2.60301 3.29577 2.24969 4.07324 2.07664 5.17183C2.03337 5.37465 1.96127 5.51831 1.86032 5.60282C1.75937 5.68732 1.644 5.72958 1.51421 5.72958H0.475896C0.346106 5.72958 0.230738 5.67887 0.12979 5.57747C0.0432633 5.47606 0 5.34085 0 5.17183C0.0144211 4.47887 0.144211 3.81972 0.38937 3.19437C0.634528 2.56901 0.980634 2.01972 1.42769 1.54648C1.88916 1.07324 2.42995 0.701409 3.05006 0.430986C3.68459 0.143662 4.39122 0 5.16996 0C6.04965 0 6.79955 0.143662 7.41965 0.430986C8.05418 0.701409 8.55892 1.07324 8.93387 1.54648C9.32324 2.00282 9.60445 2.50986 9.7775 3.06761C9.95056 3.62535 10.0227 4.1831 9.99382 4.74085C9.95056 5.4169 9.80634 6.02535 9.56119 6.5662C9.31603 7.09014 9.0204 7.58028 8.67429 8.03662C8.32818 8.47606 7.97487 8.91549 7.61434 9.35493C7.26823 9.77747 6.96539 10.2254 6.70581 10.6986C6.46065 11.1549 6.32365 11.6535 6.29481 12.1944C6.28039 12.3803 6.26597 12.5662 6.25155 12.7521C6.25155 12.9211 6.25155 13.0901 6.25155 13.2592C6.2227 13.4451 6.16502 13.5887 6.07849 13.6901C5.99197 13.7915 5.86939 13.8423 5.71075 13.8423H4.54265ZM4.36959 18C4.22538 18 4.1028 17.9493 4.00185 17.8479C3.91533 17.7296 3.87206 17.5859 3.87206 17.4169V15.8704C3.87206 15.7014 3.91533 15.5662 4.00185 15.4648C4.1028 15.3465 4.22538 15.2873 4.36959 15.2873H5.77565C5.93428 15.2873 6.05686 15.3465 6.14339 15.4648C6.24433 15.5662 6.29481 15.7014 6.29481 15.8704V17.4169C6.29481 17.5859 6.24433 17.7296 6.14339 17.8479C6.05686 17.9493 5.93428 18 5.77565 18H4.36959Z" fill="#949ECD"/>
</svg>
