<svg width="19" height="19" viewBox="0 0 19 19" fill="none" xmlns="http://www.w3.org/2000/svg">
<g clip-path="url(#clip0_316_12806)">
<path d="M14.2342 8.54208V11.7088C14.2342 11.9146 14.2263 12.1125 14.2025 12.3025C14.0205 14.44 12.7617 15.5008 10.4421 15.5008H10.1255C9.92754 15.5008 9.73754 15.5958 9.61879 15.7542L8.66879 17.0208C8.24921 17.5829 7.56837 17.5829 7.14879 17.0208L6.19879 15.7542C6.13542 15.6804 6.05797 15.62 5.97097 15.5765C5.88398 15.533 5.78918 15.5073 5.69212 15.5008H5.37546C2.85004 15.5008 1.58337 14.8754 1.58337 11.7088V8.54208C1.58337 6.2225 2.65212 4.96375 4.78171 4.78167C4.97171 4.75792 5.16962 4.75 5.37546 4.75H10.4421C12.9675 4.75 14.2342 6.01667 14.2342 8.54208Z" stroke="#949ECD" stroke-width="1.5" stroke-miterlimit="10" stroke-linecap="round" stroke-linejoin="round"/>
<path d="M17.4008 5.37534V8.542C17.4008 10.8695 16.332 12.1203 14.2025 12.3024C14.2262 12.1124 14.2341 11.9145 14.2341 11.7087V8.542C14.2341 6.01659 12.9674 4.74992 10.442 4.74992H5.37537C5.16953 4.74992 4.97162 4.75784 4.78162 4.78159C4.9637 2.652 6.22245 1.58325 8.54203 1.58325H13.6087C16.1341 1.58325 17.4008 2.84992 17.4008 5.37534V5.37534Z" stroke="#949ECD" stroke-width="1.5" stroke-miterlimit="10" stroke-linecap="round" stroke-linejoin="round"/>
<path d="M10.6835 10.4895H10.6914M7.91268 10.4895H7.9206M5.14185 10.4895H5.14976" stroke="#949ECD" stroke-width="2" stroke-linecap="round" stroke-linejoin="round"/>
</g>
<defs>
<clipPath id="clip0_316_12806">
<rect width="19" height="19" fill="white"/>
</clipPath>
</defs>
</svg>
