<svg width="39" height="39" viewBox="0 0 39 39" fill="none" xmlns="http://www.w3.org/2000/svg">
<path d="M36.916 4.03314C36.9498 3.83006 36.9366 3.62192 36.8773 3.42478C36.8179 3.22763 36.7141 3.04674 36.5738 2.89606C36.4335 2.74538 36.2605 2.62894 36.0681 2.5557C35.8757 2.48247 35.669 2.45441 35.4641 2.47368L26.6182 3.29374C26.266 3.32785 25.9415 3.4994 25.715 3.7712C25.4885 4.043 25.3783 4.39312 25.4082 4.74565C25.4199 4.92605 25.4679 5.10224 25.5493 5.26368C25.6307 5.42511 25.7437 5.56848 25.8818 5.68519C26.0199 5.80191 26.18 5.88959 26.3528 5.94298C26.5255 5.99636 26.7072 6.01437 26.887 5.99591L32.0763 5.51194L26.2283 10.755L19.8963 4.70532C19.6501 4.4861 19.332 4.36499 19.0023 4.36499C18.6727 4.36499 18.3545 4.4861 18.1083 4.70532L3.64297 16.8046C3.42889 16.9819 3.27506 17.2213 3.20265 17.4897C3.13025 17.7581 3.14282 18.0423 3.23865 18.3033C3.33448 18.5642 3.50885 18.7891 3.73776 18.9468C3.96666 19.1046 4.23883 19.1875 4.51681 19.1841C4.83776 19.1698 5.14299 19.0411 5.3772 18.8211L18.9015 7.47471L25.2603 13.5916C25.5097 13.826 25.839 13.9565 26.1812 13.9565C26.5235 13.9565 26.8528 13.826 27.1021 13.5916L33.6088 7.75703L32.8694 12.2606C32.8407 12.4355 32.8468 12.6143 32.8873 12.7868C32.9279 12.9592 33.0022 13.122 33.1059 13.2657C33.2096 13.4094 33.3406 13.5311 33.4916 13.624C33.6425 13.7168 33.8103 13.7789 33.9853 13.8067H34.2004C34.5226 13.8108 34.8356 13.6991 35.0823 13.4918C35.3291 13.2845 35.4932 12.9955 35.5447 12.6774L36.8891 4.69188C36.9526 4.47793 36.9618 4.25155 36.916 4.03314Z" fill="white"/>
<path d="M4.51722 21.7922C4.16067 21.7922 3.81872 21.9339 3.56661 22.186C3.31449 22.4381 3.17285 22.7801 3.17285 23.1366V35.4644C3.17285 35.821 3.31449 36.1629 3.56661 36.415C3.81872 36.6671 4.16067 36.8088 4.51722 36.8088C4.87376 36.8088 5.21571 36.6671 5.46782 36.415C5.71994 36.1629 5.86158 35.821 5.86158 35.4644V23.1366C5.86158 22.7801 5.71994 22.4381 5.46782 22.186C5.21571 21.9339 4.87376 21.7922 4.51722 21.7922Z" fill="white"/>
<path d="M11.736 18.4985C11.3794 18.4985 11.0375 18.6402 10.7854 18.8923C10.5332 19.1444 10.3916 19.4864 10.3916 19.8429V35.4644C10.3916 35.821 10.5332 36.1629 10.7854 36.415C11.0375 36.6671 11.3794 36.8088 11.736 36.8088C12.0925 36.8088 12.4345 36.6671 12.6866 36.415C12.9387 36.1629 13.0803 35.821 13.0803 35.4644V19.8429C13.0803 19.4864 12.9387 19.1444 12.6866 18.8923C12.4345 18.6402 12.0925 18.4985 11.736 18.4985Z" fill="white"/>
<path d="M26.2018 18.1624C25.8452 18.1624 25.5033 18.304 25.2512 18.5561C24.9991 18.8082 24.8574 19.1502 24.8574 19.5067V35.4643C24.8574 35.8209 24.9991 36.1628 25.2512 36.4149C25.5033 36.667 25.8452 36.8087 26.2018 36.8087C26.5583 36.8087 26.9003 36.667 27.1524 36.4149C27.4045 36.1628 27.5461 35.8209 27.5461 35.4643V19.5067C27.5461 19.1502 27.4045 18.8082 27.1524 18.5561C26.9003 18.304 26.5583 18.1624 26.2018 18.1624Z" fill="white"/>
<path d="M18.9694 13.1077C18.6128 13.1077 18.2709 13.2493 18.0188 13.5014C17.7666 13.7535 17.625 14.0955 17.625 14.452V35.4644C17.625 35.821 17.7666 36.1629 18.0188 36.415C18.2709 36.6672 18.6128 36.8088 18.9694 36.8088C19.3259 36.8088 19.6679 36.6672 19.92 36.415C20.1721 36.1629 20.3137 35.821 20.3137 35.4644V14.452C20.3137 14.0955 20.1721 13.7535 19.92 13.5014C19.6679 13.2493 19.3259 13.1077 18.9694 13.1077Z" fill="white"/>
<path d="M33.4205 15.7424C33.064 15.7424 32.722 15.8841 32.4699 16.1362C32.2178 16.3883 32.0762 16.7302 32.0762 17.0868V35.4643C32.0762 35.8208 32.2178 36.1627 32.4699 36.4149C32.722 36.667 33.064 36.8086 33.4205 36.8086C33.7771 36.8086 34.119 36.667 34.3711 36.4149C34.6233 36.1627 34.7649 35.8208 34.7649 35.4643V17.0868C34.7649 16.7302 34.6233 16.3883 34.3711 16.1362C34.119 15.8841 33.7771 15.7424 33.4205 15.7424Z" fill="white"/>
</svg>
