<svg width="37" height="37" viewBox="0 0 37 37" fill="none" xmlns="http://www.w3.org/2000/svg">
<path d="M32.6901 2.83151C32.5831 2.70237 32.4516 2.59561 32.3032 2.51736C32.1548 2.43911 31.9924 2.39091 31.8254 2.3755C31.6583 2.3601 31.4899 2.37781 31.3297 2.42761C31.1695 2.4774 31.0207 2.55832 30.8918 2.66571L18.8646 12.6778L12.9849 6.75982C12.7477 6.5337 12.4325 6.40756 12.1048 6.40756C11.7771 6.40756 11.462 6.5337 11.2248 6.75982L4.10793 13.1369L4.83492 8.85151C4.86172 8.68402 4.85526 8.51289 4.81593 8.34789C4.77659 8.18289 4.70514 8.02726 4.60565 7.88988C4.50617 7.75249 4.3806 7.63605 4.23611 7.5472C4.09163 7.45834 3.93105 7.39882 3.76356 7.37202C3.59607 7.34522 3.42494 7.35167 3.25995 7.39101C3.09495 7.43035 2.93932 7.5018 2.80193 7.60128C2.66455 7.70077 2.54811 7.82634 2.45925 7.97082C2.3704 8.11531 2.31087 8.27588 2.28407 8.44337L1.00865 16.0194C0.963262 16.2037 0.963262 16.3963 1.00865 16.5806C0.978853 16.7643 0.989637 16.9524 1.04025 17.1315C1.09086 17.3106 1.18006 17.4765 1.30161 17.6175C1.42315 17.7585 1.57409 17.8712 1.74381 17.9476C1.91354 18.0241 2.09794 18.0625 2.28407 18.0601L10.6636 17.2948C11.0019 17.2644 11.3142 17.1008 11.5318 16.8401C11.7495 16.5794 11.8547 16.2429 11.8242 15.9046C11.7938 15.5663 11.6302 15.254 11.3695 15.0364C11.1088 14.8187 10.7723 14.7135 10.434 14.744L5.56191 15.3051L12.0283 9.47646L17.9208 15.3051C18.1462 15.531 18.448 15.6641 18.7668 15.6782C19.0855 15.6924 19.398 15.5866 19.6426 15.3817L32.5243 4.62986C32.6535 4.52279 32.7602 4.39129 32.8385 4.2429C32.9167 4.09451 32.9649 3.93214 32.9803 3.76509C32.9957 3.59804 32.978 3.42959 32.9282 3.26939C32.8784 3.10919 32.7975 2.96039 32.6901 2.83151Z" fill="white"/>
<path d="M3.24124 20.6746C2.90298 20.6746 2.57857 20.8089 2.33938 21.0481C2.10019 21.2873 1.96582 21.6117 1.96582 21.95V33.6456C1.96582 33.9839 2.10019 34.3083 2.33938 34.5475C2.57857 34.7867 2.90298 34.921 3.24124 34.921C3.57951 34.921 3.90391 34.7867 4.1431 34.5475C4.38229 34.3083 4.51666 33.9839 4.51666 33.6456V21.95C4.51666 21.6117 4.38229 21.2873 4.1431 21.0481C3.90391 20.8089 3.57951 20.6746 3.24124 20.6746Z" fill="white"/>
<path d="M10.1035 20.0369C9.76528 20.0369 9.44088 20.1712 9.20169 20.4104C8.9625 20.6496 8.82812 20.974 8.82812 21.3123V33.6456C8.82812 33.9839 8.9625 34.3083 9.20169 34.5475C9.44088 34.7867 9.76528 34.921 10.1035 34.921C10.4418 34.921 10.7662 34.7867 11.0054 34.5475C11.2446 34.3083 11.379 33.9839 11.379 33.6456V21.3123C11.379 20.974 11.2446 20.6496 11.0054 20.4104C10.7662 20.1712 10.4418 20.0369 10.1035 20.0369Z" fill="white"/>
<path d="M23.8145 17.231C23.4762 17.231 23.1518 17.3653 22.9126 17.6045C22.6734 17.8437 22.5391 18.1681 22.5391 18.5064V33.6456C22.5391 33.9839 22.6734 34.3083 22.9126 34.5475C23.1518 34.7867 23.4762 34.9211 23.8145 34.9211C24.1527 34.9211 24.4772 34.7867 24.7163 34.5475C24.9555 34.3083 25.0899 33.9839 25.0899 33.6456V18.5064C25.0899 18.1681 24.9555 17.8437 24.7163 17.6045C24.4772 17.3653 24.1527 17.231 23.8145 17.231Z" fill="white"/>
<path d="M16.9649 18.1238C16.6266 18.1238 16.3022 18.2582 16.063 18.4973C15.8238 18.7365 15.6895 19.0609 15.6895 19.3992V33.6457C15.6895 33.9839 15.8238 34.3083 16.063 34.5475C16.3022 34.7867 16.6266 34.9211 16.9649 34.9211C17.3031 34.9211 17.6275 34.7867 17.8667 34.5475C18.1059 34.3083 18.2403 33.9839 18.2403 33.6457V19.3992C18.2403 19.0609 18.1059 18.7365 17.8667 18.4973C17.6275 18.2582 17.3031 18.1238 16.9649 18.1238Z" fill="white"/>
<path d="M30.6758 10.5605C30.3375 10.5605 30.0131 10.6949 29.774 10.9341C29.5348 11.1733 29.4004 11.4977 29.4004 11.836V33.6457C29.4004 33.9839 29.5348 34.3084 29.774 34.5475C30.0131 34.7867 30.3375 34.9211 30.6758 34.9211C31.0141 34.9211 31.3385 34.7867 31.5777 34.5475C31.8169 34.3084 31.9512 33.9839 31.9512 33.6457V11.836C31.9512 11.4977 31.8169 11.1733 31.5777 10.9341C31.3385 10.6949 31.0141 10.5605 30.6758 10.5605Z" fill="white"/>
</svg>
