<svg width="22" height="21" viewBox="0 0 22 21" fill="none" xmlns="http://www.w3.org/2000/svg">
<g filter="url(#filter0_b_569_8124)">
<path d="M12.6805 11.3409C12.4559 11.2204 11.9556 11.0581 11.36 11.0159C10.7643 10.9738 10.0001 11.0159 10.0001 11.0159V13.7773C10.0001 13.7773 10.798 13.7955 11.3321 13.7534C11.8657 13.7113 12.4165 13.567 12.6919 13.4043C12.9671 13.2419 13.2988 12.9892 13.2988 12.3576C13.2988 11.7257 12.9053 11.4612 12.6805 11.3409ZM11.0003 9.73432C11.4388 9.7162 11.9052 9.60803 12.2421 9.40943C12.5793 9.21092 12.7703 8.89825 12.7593 8.42884C12.7478 7.95953 12.4559 7.56251 11.9614 7.39988C11.4668 7.23743 11.1354 7.22538 10.7587 7.2194C10.3822 7.21351 10 7.24957 10 7.24957V9.73432C10.0001 9.73432 10.562 9.75244 11.0003 9.73432Z" fill="url(#paint0_linear_569_8124)"/>
<path d="M10.5561 0C4.72616 0 0 4.70094 0 10.5C0 16.299 4.72616 21 10.5561 21C16.3861 21 21.1121 16.299 21.1121 10.5C21.1121 4.70094 16.3861 0 10.5561 0ZM14.8542 14.5147C14.0687 15.0598 13.2286 15.1568 12.8573 15.205C12.674 15.229 12.36 15.2543 12.0234 15.2739V17.379H10.7205V15.308H9.7283V17.379H8.4255V15.308H5.86263L6.13041 13.7515H6.90956C7.17148 13.7515 7.28084 13.7273 7.39039 13.6245C7.49995 13.5214 7.52433 13.3641 7.52433 13.2367V7.87475C7.52433 7.53886 7.49687 7.44794 7.34162 7.27546C7.18637 7.10261 6.82123 7.07993 6.61562 7.07993H5.86254V5.73444H8.42541V3.65745H9.72811V5.73444H10.7203V3.65745H12.0232V5.75934C12.9945 5.81924 13.7175 6.00329 14.3485 6.46713C15.1645 7.0666 15.1216 8.10805 15.1034 8.35636C15.0852 8.60466 14.9757 9.08313 14.7563 9.3917C14.5374 9.70065 14.0016 10.0095 14.0016 10.0095C14.0016 10.0095 14.6347 10.1426 15.0793 10.4757C15.5234 10.8089 15.8525 11.3961 15.8338 12.256C15.8159 13.1159 15.6394 13.9698 14.8542 14.5147Z" fill="url(#paint1_linear_569_8124)"/>
</g>
<defs>
<filter id="filter0_b_569_8124" x="-4" y="-4" width="29.1121" height="29" filterUnits="userSpaceOnUse" color-interpolation-filters="sRGB">
<feFlood flood-opacity="0" result="BackgroundImageFix"/>
<feGaussianBlur in="BackgroundImageFix" stdDeviation="2"/>
<feComposite in2="SourceAlpha" operator="in" result="effect1_backgroundBlur_569_8124"/>
<feBlend mode="normal" in="SourceGraphic" in2="effect1_backgroundBlur_569_8124" result="shape"/>
</filter>
<linearGradient id="paint0_linear_569_8124" x1="13.3594" y1="8" x2="8.98438" y2="10.1875" gradientUnits="userSpaceOnUse">
<stop stop-color="#E5E853"/>
<stop offset="0.567708" stop-color="#A8AA32"/>
<stop offset="1" stop-color="#E3E727"/>
</linearGradient>
<linearGradient id="paint1_linear_569_8124" x1="21.5" y1="2.5" x2="4" y2="20" gradientUnits="userSpaceOnUse">
<stop stop-color="#E5E853"/>
<stop offset="0.567708" stop-color="#A8AA32"/>
<stop offset="1" stop-color="#E3E727"/>
</linearGradient>
</defs>
</svg>
