<svg width="921" height="753" viewBox="0 0 921 753" fill="none" xmlns="http://www.w3.org/2000/svg">
<path d="M-156.6 219.781L-8.50657 227.252L193.959 158.024L179.461 394.853L277.191 473.368L434.695 467.564L504.891 584.92L589.726 681.626L749.844 672.135L778.913 847.507" stroke="#D7B1E0" stroke-opacity="0.2"/>
<path d="M-11.7739 231.861C-9.22826 233.665 -5.7017 233.065 -3.8971 230.519C-2.0925 227.973 -2.69323 224.447 -5.23886 222.642C-7.7845 220.838 -11.3111 221.438 -13.1157 223.984C-14.9203 226.53 -14.3195 230.056 -11.7739 231.861Z" fill="white" fill-opacity="0.1" stroke="#D7B1E0" stroke-opacity="0.2"/>
<path d="M190.691 162.633C193.237 164.438 196.763 163.837 198.568 161.291C200.372 158.746 199.772 155.219 197.226 153.414C194.68 151.61 191.154 152.211 189.349 154.756C187.545 157.302 188.145 160.828 190.691 162.633Z" fill="white" fill-opacity="0.1" stroke="#D7B1E0" stroke-opacity="0.2"/>
<path d="M176.193 399.462C178.739 401.267 182.265 400.666 184.07 398.12C185.874 395.575 185.274 392.048 182.728 390.243C180.182 388.439 176.656 389.039 174.851 391.585C173.047 394.131 173.647 397.657 176.193 399.462Z" fill="white" fill-opacity="0.1" stroke="#D7B1E0" stroke-opacity="0.2"/>
<path d="M273.923 477.977C276.469 479.782 279.996 479.181 281.8 476.635C283.605 474.09 283.004 470.563 280.459 468.758C277.913 466.954 274.386 467.555 272.582 470.1C270.777 472.646 271.378 476.172 273.923 477.977Z" fill="white" fill-opacity="0.1" stroke="#D7B1E0" stroke-opacity="0.2"/>
<path d="M431.428 472.173C433.973 473.978 437.5 473.377 439.304 470.831C441.109 468.286 440.508 464.759 437.963 462.955C435.417 461.15 431.89 461.751 430.086 464.296C428.281 466.842 428.882 470.368 431.428 472.173Z" fill="white" fill-opacity="0.1" stroke="#D7B1E0" stroke-opacity="0.2"/>
<path d="M501.623 589.529C504.169 591.334 507.696 590.733 509.5 588.188C511.305 585.642 510.704 582.115 508.158 580.311C505.613 578.506 502.086 579.107 500.282 581.652C498.477 584.198 499.078 587.725 501.623 589.529Z" fill="white" fill-opacity="0.1" stroke="#D7B1E0" stroke-opacity="0.2"/>
<path d="M586.458 686.235C589.004 688.04 592.53 687.439 594.335 684.894C596.139 682.348 595.539 678.821 592.993 677.017C590.447 675.212 586.921 675.813 585.116 678.359C583.312 680.904 583.912 684.431 586.458 686.235Z" fill="white" fill-opacity="0.1" stroke="#D7B1E0" stroke-opacity="0.2"/>
<path d="M746.576 676.744C749.122 678.549 752.648 677.948 754.453 675.403C756.258 672.857 755.657 669.33 753.111 667.526C750.566 665.721 747.039 666.322 745.234 668.868C743.43 671.413 744.031 674.94 746.576 676.744Z" fill="white" fill-opacity="0.1" stroke="#D7B1E0" stroke-opacity="0.2"/>
<path d="M-52.9113 73.5131L-55.0362 292.888L144.466 227.839L200.372 365.353L276.494 474.351L360.283 572.533L554.557 514.859L613.6 647.948L764.656 651.24L831.716 773.021" stroke="#CE85D9" stroke-opacity="0.4"/>
<path d="M141.199 232.448C143.745 234.253 147.271 233.652 149.076 231.106C150.88 228.561 150.28 225.034 147.734 223.23C145.188 221.425 141.662 222.026 139.857 224.571C138.053 227.117 138.653 230.644 141.199 232.448Z" fill="white" fill-opacity="0.1" stroke="#CE85D9" stroke-opacity="0.2"/>
<path d="M197.105 369.962C199.651 371.767 203.177 371.166 204.982 368.621C206.786 366.075 206.186 362.548 203.64 360.744C201.094 358.939 197.568 359.54 195.763 362.086C193.959 364.631 194.559 368.158 197.105 369.962Z" fill="white" fill-opacity="0.1" stroke="#CE85D9" stroke-opacity="0.2"/>
<path d="M273.226 478.96C275.772 480.765 279.298 480.164 281.103 477.618C282.908 475.073 282.307 471.546 279.761 469.742C277.216 467.937 273.689 468.538 271.884 471.083C270.08 473.629 270.681 477.156 273.226 478.96Z" fill="white" fill-opacity="0.1" stroke="#CE85D9" stroke-opacity="0.2"/>
<path d="M357.015 577.142C359.561 578.946 363.087 578.345 364.892 575.8C366.696 573.254 366.096 569.728 363.55 567.923C361.004 566.118 357.478 566.719 355.673 569.265C353.869 571.81 354.469 575.337 357.015 577.142Z" fill="white" fill-opacity="0.1" stroke="#CE85D9" stroke-opacity="0.2"/>
<path d="M551.29 519.468C553.835 521.273 557.362 520.672 559.166 518.126C560.971 515.581 560.37 512.054 557.825 510.249C555.279 508.445 551.753 509.046 549.948 511.591C548.143 514.137 548.744 517.663 551.29 519.468Z" fill="white" fill-opacity="0.1" stroke="#CE85D9" stroke-opacity="0.2"/>
<path d="M610.333 652.557C612.878 654.361 616.405 653.761 618.209 651.215C620.014 648.669 619.413 645.143 616.868 643.338C614.322 641.534 610.795 642.134 608.991 644.68C607.186 647.226 607.787 650.752 610.333 652.557Z" fill="white" fill-opacity="0.1" stroke="#CE85D9" stroke-opacity="0.2"/>
<path d="M761.389 655.849C763.934 657.653 767.461 657.052 769.265 654.507C771.07 651.961 770.469 648.435 767.924 646.63C765.378 644.825 761.852 645.426 760.047 647.972C758.242 650.517 758.843 654.044 761.389 655.849Z" fill="white" fill-opacity="0.1" stroke="#CE85D9" stroke-opacity="0.2"/>
<path d="M-53.0854 73.7588L-33.0784 261.913L169.387 192.686L267.988 269.972L282.942 465.255L429.118 475.43L489.904 606.061L670.063 568.299L810.314 586.832L812.72 799.816" stroke="#117EBA" stroke-opacity="0.5"/>
<path d="M166.119 197.295C168.665 199.1 172.191 198.499 173.996 195.953C175.801 193.408 175.2 189.881 172.654 188.076C170.109 186.272 166.582 186.872 164.777 189.418C162.973 191.964 163.574 195.49 166.119 197.295Z" fill="white" fill-opacity="0.1" stroke="#117EBA" stroke-opacity="0.2"/>
<path d="M264.721 274.581C267.266 276.386 270.793 275.785 272.598 273.239C274.402 270.694 273.802 267.167 271.256 265.362C268.71 263.558 265.184 264.159 263.379 266.704C261.574 269.25 262.175 272.776 264.721 274.581Z" fill="white" fill-opacity="0.1" stroke="#117EBA" stroke-opacity="0.2"/>
<path d="M279.674 469.864C282.22 471.669 285.746 471.068 287.551 468.523C289.356 465.977 288.755 462.451 286.209 460.646C283.664 458.841 280.137 459.442 278.332 461.988C276.528 464.533 277.129 468.06 279.674 469.864Z" fill="white" fill-opacity="0.1" stroke="#117EBA" stroke-opacity="0.2"/>
<path d="M425.851 480.039C428.396 481.844 431.923 481.243 433.728 478.698C435.532 476.152 434.931 472.625 432.386 470.821C429.84 469.016 426.314 469.617 424.509 472.163C422.704 474.708 423.305 478.235 425.851 480.039Z" fill="white" fill-opacity="0.1" stroke="#117EBA" stroke-opacity="0.2"/>
<path d="M486.636 610.67C489.182 612.475 492.708 611.874 494.513 609.328C496.318 606.783 495.717 603.256 493.171 601.452C490.626 599.647 487.099 600.248 485.294 602.793C483.49 605.339 484.091 608.866 486.636 610.67Z" fill="white" fill-opacity="0.1" stroke="#117EBA" stroke-opacity="0.2"/>
<path d="M666.795 572.909C669.341 574.714 672.868 574.113 674.672 571.567C676.477 569.022 675.876 565.495 673.33 563.69C670.785 561.886 667.258 562.486 665.454 565.032C663.649 567.578 664.25 571.104 666.795 572.909Z" fill="white" fill-opacity="0.1" stroke="#117EBA" stroke-opacity="0.2"/>
<path d="M807.047 591.441C809.592 593.246 813.119 592.645 814.924 590.1C816.728 587.554 816.128 584.027 813.582 582.223C811.036 580.418 807.51 581.019 805.705 583.565C803.9 586.11 804.501 589.637 807.047 591.441Z" fill="white" fill-opacity="0.1" stroke="#117EBA" stroke-opacity="0.2"/>
</svg>
