<svg width="125" height="534" viewBox="0 0 125 534" fill="none" xmlns="http://www.w3.org/2000/svg">
<mask id="mask0_324_585" style="mask-type:alpha" maskUnits="userSpaceOnUse" x="0" y="0" width="125" height="534">
<rect width="125" height="534" fill="#D9D9D9"/>
</mask>
<g mask="url(#mask0_324_585)">
<path d="M-288.161 110.781L-146.837 118.252L46.3721 49.0241L32.5369 285.853L125.8 364.368L276.104 358.564L343.091 475.92L424.047 572.626L576.845 563.135L604.585 738.506" stroke="#D7B1E0" stroke-opacity="0.2"/>
<path d="M43.254 53.633C45.6832 55.4376 49.0486 54.8369 50.7707 52.2913C52.4928 49.7457 51.9195 46.2191 49.4902 44.4145C47.061 42.6099 43.6956 43.2106 41.9735 45.7563C40.2514 48.3019 40.8247 51.8284 43.254 53.633Z" fill="white" fill-opacity="0.1" stroke="#D7B1E0" stroke-opacity="0.2"/>
<path d="M29.4185 290.462C31.8478 292.267 35.2131 291.666 36.9352 289.12C38.6573 286.575 38.0841 283.048 35.6548 281.243C33.2255 279.439 29.8602 280.039 28.1381 282.585C26.416 285.131 26.9892 288.657 29.4185 290.462Z" fill="white" fill-opacity="0.1" stroke="#D7B1E0" stroke-opacity="0.5"/>
<path d="M122.681 368.977C125.111 370.782 128.476 370.181 130.198 367.635C131.92 365.09 131.347 361.563 128.918 359.758C126.488 357.954 123.123 358.555 121.401 361.1C119.679 363.646 120.252 367.172 122.681 368.977Z" fill="white" fill-opacity="0.1" stroke="#D7B1E0" stroke-opacity="0.5"/>
<path d="M-189.212 -35.4869L-191.24 183.888L-0.857725 118.839L52.4927 256.353L125.134 365.351L205.093 463.533L390.486 405.859L446.83 538.948L590.981 542.24L654.974 664.02" stroke="#CE85D9" stroke-opacity="0.2"/>
<path d="M-3.97554 123.448C-1.54627 125.253 1.81907 124.652 3.54118 122.106C5.26328 119.561 4.69002 116.034 2.26075 114.23C-0.16851 112.425 -3.53386 113.026 -5.25596 115.571C-6.97807 118.117 -6.4048 121.644 -3.97554 123.448Z" fill="white" fill-opacity="0.1" stroke="#CE85D9" stroke-opacity="0.2"/>
<path d="M49.3746 260.962C51.8038 262.767 55.1692 262.166 56.8913 259.621C58.6134 257.075 58.0401 253.548 55.6109 251.744C53.1816 249.939 49.8162 250.54 48.0941 253.086C46.372 255.631 46.9453 259.158 49.3746 260.962Z" fill="white" fill-opacity="0.1" stroke="#CE85D9" stroke-opacity="0.2"/>
<path d="M122.016 369.96C124.445 371.765 127.811 371.164 129.533 368.618C131.255 366.073 130.682 362.546 128.252 360.742C125.823 358.937 122.458 359.538 120.736 362.083C119.014 364.629 119.587 368.156 122.016 369.96Z" fill="white" fill-opacity="0.1" stroke="#CE85D9" stroke-opacity="0.2"/>
<path d="M-189.379 -35.2412L-170.286 152.913L22.9234 83.6857L117.018 160.972L131.287 356.255L270.782 366.43L328.788 497.061L500.711 459.299L634.552 477.832L636.848 690.816" stroke="#117EBA" stroke-opacity="0.3"/>
<path d="M19.805 88.2949C22.2342 90.0995 25.5996 89.4988 27.3217 86.9532C29.0438 84.4075 28.4705 80.881 26.0413 79.0764C23.612 77.2718 20.2467 77.8725 18.5246 80.4181C16.8025 82.9638 17.3757 86.4903 19.805 88.2949Z" fill="white" fill-opacity="0.1" stroke="#117EBA" stroke-opacity="0.2"/>
<path d="M113.899 165.581C116.329 167.386 119.694 166.785 121.416 164.239C123.138 161.694 122.565 158.167 120.136 156.363C117.706 154.558 114.341 155.159 112.619 157.704C110.897 160.25 111.47 163.777 113.899 165.581Z" fill="white" fill-opacity="0.1" stroke="#117EBA" stroke-opacity="0.2"/>
<path d="M128.169 360.864C130.598 362.669 133.964 362.068 135.686 359.523C137.408 356.977 136.835 353.451 134.405 351.646C131.976 349.841 128.611 350.442 126.889 352.988C125.167 355.533 125.74 359.06 128.169 360.864Z" fill="white" fill-opacity="0.1" stroke="#117EBA" stroke-opacity="0.2"/>
</g>
</svg>
